<svg width="116" height="116" viewBox="0 0 116 116" fill="none" xmlns="http://www.w3.org/2000/svg">
<path d="M9.66667 60.4167C9.66667 59.0822 10.7487 58 12.0833 58H36.25C37.5847 58 38.6667 59.0822 38.6667 60.4167V87C38.6667 95.0084 32.1748 101.5 24.1667 101.5C16.1586 101.5 9.66667 95.0084 9.66667 87V60.4167Z" fill="white"/>
<path d="M14.5 50.75H33.8333V28.9992C33.8333 25.4061 30.0522 23.0693 26.8385 24.6761L17.1718 29.5094C15.5343 30.3281 14.5 32.0017 14.5 33.8325V50.75Z" fill="white"/>
<path d="M53.1667 50.75C53.1667 36.0684 65.0683 24.1667 79.75 24.1667C94.4317 24.1667 106.333 36.0684 106.333 50.75C106.333 65.4317 94.4317 77.3333 79.75 77.3333C65.0683 77.3333 53.1667 65.4317 53.1667 50.75Z" fill="white"/>
<path d="M76.125 85.5998C77.3159 85.7264 78.5252 85.7917 79.75 85.7917C80.9748 85.7917 82.1841 85.7264 83.375 85.5998V94.25H94.25C96.252 94.25 97.875 95.873 97.875 97.875C97.875 99.877 96.252 101.5 94.25 101.5H65.25C63.248 101.5 61.625 99.877 61.625 97.875C61.625 95.873 63.248 94.25 65.25 94.25H76.125V85.5998Z" fill="white"/>
</svg>
