<svg width="74" height="74" viewBox="0 0 74 74" fill="none" xmlns="http://www.w3.org/2000/svg">
<path d="M34.1206 16.2734H43.1961V14.2385H51.6445C53.1136 14.2385 54.3053 13.047 54.3053 11.5777C54.3053 11.1925 54.3053 10.1895 54.3053 7.82362C54.3053 2.50343 48.5164 0 44.7613 0C41.0063 0 23.7948 0 23.7948 0V7.98C33.9646 7.98 34.1206 16.2734 34.1206 16.2734Z" fill="white"/>
<path d="M21.916 0H15.5011V7.98H21.916V0Z" fill="white"/>
<path d="M28.488 10.953C28.488 10.953 27.0801 9.70137 23.7948 9.70137C23.7948 11.8913 22.6992 19.0893 18.7868 22.0623L20.9778 24.2534C20.9778 24.2534 27.5497 18.7768 28.488 10.953Z" fill="white"/>
<path d="M34.3624 18.0885C33.0887 18.0885 32.0556 19.1205 32.0556 20.3952V26.3809H45.3559V20.3952C45.3559 19.1205 44.3228 18.0885 43.0492 18.0885H34.3624Z" fill="white"/>
<path d="M57.0354 51.4277L45.512 28.9375H31.8995L20.3762 51.4277C19.4136 53.3053 18.9115 55.3852 18.9115 57.4954V67.7901C18.9115 71.2201 21.6926 74 25.1214 74H52.2888C55.7188 74 58.4987 71.2201 58.4987 67.7901V57.4954C58.4989 55.3851 57.9968 53.3051 57.0354 51.4277ZM47.2334 60.3389C47.2334 61.6624 46.1611 62.7347 44.8376 62.7347H32.5727C31.2503 62.7347 30.178 61.6624 30.178 60.3389V57.4954C30.178 57.1738 30.2554 56.8509 30.4023 56.5642L34.7579 48.0637C35.5167 46.5817 37.0403 45.6505 38.705 45.6505C40.3697 45.6505 41.8932 46.5817 42.6533 48.0637L47.0078 56.5653C47.1559 56.8511 47.2334 57.1738 47.2334 57.4955V60.3389Z" fill="white"/>
</svg>
