<svg width="116" height="116" viewBox="0 0 116 116" fill="none" xmlns="http://www.w3.org/2000/svg">
<path d="M108.387 63.4375C107.662 62.35 106.575 61.625 105.125 61.625C97.15 61.625 89.5375 65.25 84.825 71.775L81.5625 76.125C77.575 80.8375 71.4125 83.375 65.25 83.375H54.375C52.2 83.375 50.75 81.925 50.75 79.75C50.75 77.575 52.2 76.125 54.375 76.125H61.2625C67.0625 76.125 72.5 71.4125 72.5 65.6125V65.25C72.5 63.4375 70.6875 61.625 68.875 61.625H46.7625C33.7125 61.625 23.2 67.425 17.4 76.85L7.6125 92.075C6.8875 93.1625 6.8875 94.6125 7.6125 95.7L18.4875 113.825C18.85 114.55 19.9375 115.275 20.6625 115.638C21.025 115.638 21.025 115.638 21.3875 115.638C22.1125 115.638 22.8375 115.275 23.5625 114.913C37.3375 105.85 53.2875 101.138 69.6 101.138C81.5625 101.138 92.4375 94.6125 98.2375 84.1L108.025 66.7C108.75 65.975 108.75 64.525 108.387 63.4375Z" fill="white"/>
<path d="M16.3125 65.25C16.675 65.25 17.4 65.25 17.7625 65.25C22.1125 61.2625 27.55 58.3625 33.35 56.55C32.9875 54.7375 32.625 52.5625 32.625 50.75C32.625 34.8 45.675 21.75 61.625 21.75C77.575 21.75 90.625 34.8 90.625 50.75C90.625 53.2875 90.2625 55.825 89.5375 58.3625C94.25 55.825 99.6875 54.375 105.125 54.375C107.662 54.375 110.2 55.4625 112.012 56.9125C112.375 54.7375 112.375 52.925 112.375 50.75C112.375 46.7625 112.013 42.775 110.925 38.7875C110.563 36.975 108.75 35.8875 106.938 35.8875C102.587 36.6125 98.2375 34.4375 96.0625 30.45C93.8875 26.825 94.25 21.75 96.7875 18.4875C97.875 17.0375 97.875 14.8625 96.425 13.775C90.625 8.3375 83.7375 4.35 76.125 2.175C74.3125 1.8125 72.5 2.5375 71.775 4.35C69.9625 8.3375 65.975 10.875 61.625 10.875C57.275 10.875 53.2875 8.3375 51.475 4.35C50.75 2.5375 48.9375 1.45 47.125 2.175C39.5125 4.35 32.625 8.3375 26.825 14.1375C25.375 15.225 25.375 17.4 26.4625 18.85C29 22.475 29.3625 27.1875 27.1875 30.8125C25.0125 34.4375 20.6625 36.6125 16.3125 36.25C14.5 35.8875 12.6875 37.3375 12.325 39.15C11.2375 42.775 10.875 46.7625 10.875 50.75C10.875 54.7375 11.2375 58.725 12.325 62.7125C12.6875 64.525 14.5 65.6125 16.3125 65.25Z" fill="white"/>
</svg>
