<svg width="116" height="115" viewBox="0 0 116 115" fill="none" xmlns="http://www.w3.org/2000/svg">
<g clip-path="url(#clip0_18_19)">
<path d="M30.3262 103.866C30.3262 97.7727 35.3143 92.8277 41.4606 92.8277C47.607 92.8277 52.595 97.7727 52.595 103.866C52.595 109.982 47.607 114.905 41.4606 114.905C35.3143 114.907 30.3262 109.982 30.3262 103.866ZM30.3262 72.9545C30.3262 66.8612 35.3143 61.9161 41.4606 61.9161C47.607 61.9161 52.595 66.8612 52.595 72.9545C52.595 79.0479 47.607 83.9929 41.4606 83.9929C35.3143 83.9954 30.3262 79.0504 30.3262 72.9545ZM30.3262 42.0455C30.3262 35.9521 35.3143 31.0071 41.4606 31.0071C47.607 31.0071 52.595 35.9521 52.595 42.0455C52.595 48.1614 47.607 53.0839 41.4606 53.0839C35.3143 53.0839 30.3262 48.1614 30.3262 42.0455Z" fill="white"/>
<path d="M62.0414 103.866C62.0414 97.7727 67.0294 92.8277 73.1758 92.8277C79.3221 92.8277 84.3102 97.7727 84.3102 103.866C84.3102 109.982 79.3221 114.905 73.1758 114.905C67.0294 114.907 62.0414 109.982 62.0414 103.866ZM62.0414 72.9545C62.0414 66.8612 67.0294 61.9161 73.1758 61.9161C79.3221 61.9161 84.3102 66.8612 84.3102 72.9545C84.3102 79.0479 79.3221 83.9929 73.1758 83.9929C67.0294 83.9955 62.0414 79.0504 62.0414 72.9545ZM62.0414 42.0455C62.0414 35.9521 67.0294 31.0071 73.1758 31.0071C79.3221 31.0071 84.3102 35.9521 84.3102 42.0455C84.3102 48.1614 79.3221 53.0839 73.1758 53.0839C67.0294 53.0839 62.0414 48.1614 62.0414 42.0455ZM62.0414 11.1339C62.0414 5.04053 67.0294 0.0954819 73.1758 0.0954819C79.3221 0.0954819 84.3102 5.04053 84.3102 11.1339C84.3102 17.2273 79.3221 22.1723 73.1758 22.1723C67.0294 22.1748 62.0414 17.2273 62.0414 11.1339Z" fill="white"/>
<path d="M93.7312 103.866C93.7312 97.7727 98.7192 92.8277 104.866 92.8277C111.035 92.8277 116 97.7727 116 103.866C116 109.959 111.035 114.905 104.866 114.905C98.7218 114.907 93.7312 109.962 93.7312 103.866ZM0 103.866C0 97.7727 4.98805 92.8277 11.1344 92.8277C17.3036 92.8277 22.2688 97.7727 22.2688 103.866C22.2688 109.959 17.3036 114.905 11.1344 114.905C4.98805 114.907 0 109.962 0 103.866ZM93.7312 72.9545C93.7312 66.8612 98.7192 61.9161 104.866 61.9161C111.035 61.9161 116 66.8612 116 72.9545C116 79.0479 111.035 83.9929 104.866 83.9929C98.7218 83.9954 93.7312 79.0504 93.7312 72.9545Z" fill="white"/>
</g>
<defs>
<clipPath id="clip0_18_19">
<rect width="116" height="115" fill="white"/>
</clipPath>
</defs>
</svg>
