<svg width="115" height="115" viewBox="0 0 115 115" fill="none" xmlns="http://www.w3.org/2000/svg">
<path d="M51.0854 63.3398L50.2402 73.4473H64.7598L63.9146 63.3398H51.0854Z" fill="white"/>
<path d="M67.3202 103.77L65.1374 77.9395H49.8626L47.6799 103.77C47.6792 103.778 47.6783 103.765 47.6776 103.773C47.4108 106.574 48.3065 109.253 50.1997 111.335C52.093 113.418 54.6856 114.559 57.4998 114.559C60.3139 114.559 62.9066 113.41 64.7998 111.327C66.693 109.245 67.5888 106.575 67.3219 103.774C67.3215 103.766 67.3208 103.778 67.3202 103.77ZM59.7461 104.708C59.7461 105.944 58.7358 106.946 57.5 106.946C56.2642 106.946 55.2539 105.944 55.2539 104.708V102.246C55.2539 101.01 56.2642 100.008 57.5 100.008C58.7358 100.008 59.7461 101.01 59.7461 102.246V104.708Z" fill="white"/>
<path d="M81.7464 0.449219L74.1674 23.1154C73.8522 24.0586 72.9554 24.6758 71.9592 24.6376C70.9658 24.5994 70.1165 23.9173 69.8746 22.9531L64.2257 0.449219H51.2109V24.822C51.2109 26.0578 50.2006 27.0598 48.9648 27.0598C47.729 27.0598 46.7188 26.0581 46.7188 24.822V0.449219H39.082V24.822C39.082 26.0578 38.0717 27.0598 36.8359 27.0598C35.6001 27.0598 34.5898 26.0581 34.5898 24.822V0.449219H23.584V37.0605H91.416V0.449219H81.7464Z" fill="white"/>
<path d="M23.584 53.3167C23.584 56.3871 25.9303 58.8477 29.0009 58.8477H49.0286H65.9714H85.9991C89.0695 58.8477 91.416 56.3873 91.416 53.3167V41.5527H23.584V53.3167Z" fill="white"/>
</svg>
