<?xml version="1.0" encoding="iso-8859-1"?>
<!-- Uploaded to: SVG Repo, www.svgrepo.com, Generator: SVG Repo Mixer Tools -->
<svg fill="#000000" height="800px" width="800px" version="1.1" id="Layer_1" xmlns="http://www.w3.org/2000/svg" xmlns:xlink="http://www.w3.org/1999/xlink" 
	 viewBox="0 0 512 512" xml:space="preserve">
<g>
	<g>
		<path d="M493.798,34.133h-50.065V18.202C443.733,8.166,435.567,0,425.532,0h-31.863c-10.035,0-18.202,8.166-18.202,18.202v15.932
			H136.533V18.202C136.533,8.166,128.367,0,118.332,0H86.468C76.433,0,68.267,8.166,68.267,18.202v15.932H18.202
			C8.166,34.133,0,42.3,0,52.335v100.13c0,10.035,8.166,18.202,18.202,18.202h50.065v15.932c0,10.035,8.166,18.202,18.202,18.202
			h31.863c10.035,0,18.202-8.166,18.202-18.202v-15.932h51.2v204.8h-15.932c-10.035,0-18.202,8.166-18.202,18.202v31.863
			c0,10.035,8.166,18.202,18.202,18.202h15.932v50.065c0,10.035,8.166,18.202,18.202,18.202h100.13
			c10.035,0,18.202-8.166,18.202-18.202v-50.065h15.932c10.035,0,18.202-8.166,18.202-18.202v-31.863
			c0-10.035-8.166-18.202-18.202-18.202h-15.932v-204.8h51.2v15.932c0,10.035,8.166,18.202,18.202,18.202h31.863
			c10.035,0,18.202-8.166,18.202-18.202v-15.932h50.065c10.035,0,18.202-8.166,18.202-18.202V52.335
			C512,42.3,503.834,34.133,493.798,34.133z M119.467,42.667v119.467v24.465c0,0.623-0.512,1.135-1.135,1.135H86.468
			c-0.623,0-1.135-0.512-1.135-1.135v-24.465V42.667V18.202c0-0.631,0.512-1.135,1.135-1.135h31.863
			c0.623,0,1.135,0.503,1.135,1.135V42.667z M340.198,392.533c0.623,0,1.135,0.503,1.135,1.135v31.863
			c0,0.623-0.512,1.135-1.135,1.135h-24.465H196.267h-24.465c-0.623,0-1.135-0.512-1.135-1.135v-31.863
			c0-0.631,0.512-1.135,1.135-1.135h24.465h119.467H340.198z M426.667,42.667v119.467v24.465c0,0.623-0.512,1.135-1.135,1.135
			h-31.863c-0.623,0-1.135-0.512-1.135-1.135v-24.465V42.667V18.202c0-0.631,0.512-1.135,1.135-1.135h31.863
			c0.623,0,1.135,0.503,1.135,1.135V42.667z"/>
	</g>
</g>
</svg>