<svg width="116" height="115" viewBox="0 0 116 115" fill="none" xmlns="http://www.w3.org/2000/svg">
<g clip-path="url(#clip0_18_35)">
<path d="M111.876 7.66659H100.533V4.08834C100.533 1.83416 98.6832 0 96.4096 0H89.1906C86.9171 0 85.0667 1.83416 85.0667 4.08834V7.66682H30.9333V4.08834C30.9333 1.83416 29.0831 0 26.8096 0H19.5904C17.3169 0 15.4667 1.83416 15.4667 4.08834V7.66682H4.12389C1.85011 7.66659 0 9.50098 0 11.7549V34.2451C0 36.499 1.85011 38.3334 4.12389 38.3334H15.4667V41.9119C15.4667 44.1658 17.3169 46.0002 19.5906 46.0002H26.8096C29.0831 46.0002 30.9335 44.1661 30.9335 41.9119V38.3334H42.5335V84.3334H38.9239C36.6503 84.3334 34.8 86.1676 34.8 88.4217V95.5785C34.8 97.8324 36.6501 99.6668 38.9239 99.6668H42.5335V110.912C42.5335 113.166 44.3836 115 46.6574 115H69.3431C71.6166 115 73.467 113.166 73.467 110.912V99.6668H77.0766C79.3501 99.6668 81.2005 97.8327 81.2005 95.5785V88.4217C81.2005 86.1678 79.3503 84.3334 77.0766 84.3334H73.467V38.3334H85.067V41.9119C85.067 44.1658 86.9171 46.0002 89.1909 46.0002H96.4098C98.6834 46.0002 100.534 44.1661 100.534 41.9119V38.3334H111.877C114.15 38.3334 116 36.4992 116 34.2451V11.7549C116 9.50098 114.15 7.66659 111.876 7.66659ZM27.0667 9.58341V36.4168V41.9119C27.0667 42.0518 26.9507 42.1668 26.8096 42.1668H19.5904C19.4493 42.1668 19.3333 42.0518 19.3333 41.9119V36.4168V9.58341V4.08834C19.3333 3.94661 19.4493 3.83341 19.5904 3.83341H26.8094C26.9505 3.83341 27.0665 3.94639 27.0665 4.08834L27.0667 9.58341ZM77.0761 88.1666C77.2173 88.1666 77.3333 88.2796 77.3333 88.4215V95.5783C77.3333 95.7182 77.2173 95.8332 77.0761 95.8332H71.5333H44.4667H38.9239C38.7827 95.8332 38.6667 95.7182 38.6667 95.5783V88.4215C38.6667 88.2798 38.7827 88.1666 38.9239 88.1666H44.4667H71.5335H77.0761ZM96.6667 9.58341V36.4168V41.9119C96.6667 42.0518 96.5507 42.1668 96.4096 42.1668H89.1906C89.0495 42.1668 88.9335 42.0518 88.9335 41.9119V36.4168V9.58341V4.08834C88.9335 3.94661 89.0495 3.83341 89.1906 3.83341H96.4096C96.5507 3.83341 96.6667 3.94639 96.6667 4.08834V9.58341Z" fill="white"/>
</g>
<defs>
<clipPath id="clip0_18_35">
<rect width="116" height="115" fill="white"/>
</clipPath>
</defs>
</svg>
