<svg width="116" height="116" viewBox="0 0 116 116" fill="none" xmlns="http://www.w3.org/2000/svg">
<g clip-path="url(#clip0_18_39)">
<path d="M58.0012 0C25.9673 0 0.00050354 25.967 0.00050354 58.0009C0.00050354 90.033 25.9673 116 58.0012 116C90.0333 116 116 90.033 116 58.0009C116 25.967 90.0333 0 58.0012 0ZM58.0012 94.9705C37.5816 94.9705 21.0296 78.4205 21.0296 58.0009C21.0296 37.5813 37.5816 21.0295 58.0012 21.0295C78.419 21.0295 94.9707 37.5815 94.9707 58.0011C94.9707 78.4208 78.419 94.9705 58.0012 94.9705Z" fill="white"/>
<path d="M58.0009 61.5752C59.9761 61.5752 61.5752 59.9761 61.5752 58.0009C61.5752 56.0257 59.9761 54.4248 58.0009 54.4248C56.0241 54.4248 54.4248 56.0257 54.4248 58.0009C54.4246 59.9761 56.0241 61.5752 58.0009 61.5752Z" fill="white"/>
<path d="M34.1491 44.5535C34.4001 45.2228 34.9409 45.7405 35.6217 45.9609L48.3634 50.1045C49.5503 50.4861 50.8504 50.2828 51.859 49.5504C52.8659 48.814 53.4658 47.6425 53.4658 46.3959V33.0061C53.4658 32.2929 53.1382 31.6159 52.5761 31.175C52.0163 30.7282 51.2838 30.5671 50.5896 30.7282C50.5896 30.7282 50.7795 30.5846 49.4908 30.9892C43.4776 32.8855 38.3251 36.7303 34.7873 41.7885C34.0587 42.8278 34.3387 42.5305 34.3387 42.5305C33.9726 43.1384 33.9037 43.8824 34.1491 44.5535Z" fill="white"/>
<path d="M48.0646 61.2319C47.6792 60.0429 46.7489 59.1111 45.5622 58.7295L32.826 54.5916C32.1472 54.3712 31.4052 54.4747 30.8107 54.8675C30.2162 55.2645 29.8347 55.9106 29.7733 56.6239C29.7733 56.6239 29.6967 56.3978 29.6831 57.7476C29.6255 64.0524 31.6927 70.1367 35.409 75.0685C36.1721 76.0811 35.9727 75.7224 35.9727 75.7224C36.4424 76.2612 37.1288 76.5566 37.8384 76.5276C38.5535 76.4988 39.215 76.1461 39.633 75.567L47.5102 64.7235C48.2426 63.7171 48.4479 62.415 48.0646 61.2319Z" fill="white"/>
<path d="M61.1553 70.0545C60.419 69.0479 59.2472 68.4495 58.0009 68.4495C56.7528 68.4495 55.581 69.0479 54.8503 70.0545L46.9773 80.8864C46.5593 81.4635 46.4249 82.2037 46.6204 82.894C46.8103 83.5823 47.3069 84.1424 47.9685 84.4206C47.9685 84.4206 47.727 84.4263 49.0098 84.8558C54.9885 86.8595 61.4141 86.7712 67.2492 84.7597C68.4475 84.3476 68.0467 84.426 68.0467 84.426C68.7064 84.1501 69.201 83.5864 69.3909 82.8999C69.5826 82.2096 69.4464 81.4732 69.0284 80.896L61.1553 70.0545Z" fill="white"/>
<path d="M83.1836 54.5877L70.4399 58.7295C69.2549 59.1111 68.3211 60.0429 67.9393 61.2319C67.5521 62.415 67.7571 63.7168 68.4935 64.7217L76.3611 75.5556C76.7829 76.1366 77.4445 76.4836 78.1595 76.5183C78.873 76.5489 79.5592 76.2478 80.0253 75.7072C80.0253 75.7072 79.9564 75.9354 80.7596 74.8519C84.5123 69.7842 86.42 63.6421 86.3108 57.4735C86.2895 56.2079 86.236 56.6143 86.236 56.6143C86.1746 55.9011 85.7951 55.255 85.1988 54.8619C84.6043 54.4708 83.8644 54.3653 83.1836 54.5877Z" fill="white"/>
<path d="M64.1426 49.5506C65.1533 50.2812 66.4494 50.4863 67.6364 50.1048L80.3687 45.9612C81.0496 45.7423 81.5904 45.2228 81.8414 44.5537C82.0908 43.8827 82.0179 43.1366 81.6459 42.5251C81.6459 42.5251 81.8434 42.6592 81.0591 41.5624C77.4005 36.4254 72.1504 32.717 66.2482 30.9126C65.0343 30.5445 65.4045 30.7171 65.4045 30.7171C64.7085 30.556 63.9781 30.7207 63.4219 31.1657C62.86 31.6048 62.534 32.2818 62.534 32.9932V46.3948C62.534 47.6425 63.1341 48.8143 64.1426 49.5506Z" fill="white"/>
</g>
<defs>
<clipPath id="clip0_18_39">
<rect width="116" height="116" fill="white"/>
</clipPath>
</defs>
</svg>
