<svg width="115" height="116" viewBox="0 0 115 116" fill="none" xmlns="http://www.w3.org/2000/svg">
<path d="M102.09 46.3573L92.805 52.2611C92.1314 52.6692 91.3353 52.8209 90.5606 52.6888C89.7858 52.5567 89.0834 52.1495 88.5803 51.5406L83.9682 45.6979V89.9977C83.9666 90.7663 83.6631 91.503 83.1243 92.0465C82.5855 92.59 81.8552 92.8961 81.0932 92.8977H33.9432C33.1811 92.8961 32.4508 92.59 31.912 92.0465C31.3732 91.503 31.0698 90.7663 31.0682 89.9977V45.6491L26.4137 51.5406C25.9108 52.1479 25.2096 52.5542 24.4362 52.6862C23.6627 52.8183 22.868 52.6675 22.195 52.2611L12.9042 46.3573C12.5937 46.1773 12.3283 45.9279 12.1283 45.6282C11.9283 45.3286 11.799 44.9867 11.7505 44.6288C11.702 44.2709 11.7355 43.9065 11.8484 43.5637C11.9613 43.2209 12.1506 42.9088 12.4018 42.6514L25.99 27.4371C27.5872 25.6462 29.5398 24.2142 31.7212 23.2339C33.9026 22.2536 36.264 21.747 38.6521 21.7469H44.3113C45.4191 24.3539 47.2609 26.5758 49.6085 28.1371C51.9561 29.6985 54.7062 30.5307 57.5182 30.5307C60.3301 30.5307 63.0802 29.6985 65.4278 28.1371C67.7754 26.5758 69.6172 24.3539 70.725 21.7469H76.3782C78.7676 21.7477 81.1302 22.2552 83.3126 23.2365C85.4951 24.2178 87.4485 25.651 89.0463 27.4432L102.604 42.6453C102.855 42.9041 103.044 43.2175 103.155 43.5613C103.267 43.9051 103.3 44.2702 103.25 44.6286C103.201 44.987 103.07 45.3292 102.869 45.6289C102.668 45.9285 102.401 46.1777 102.09 46.3573Z" fill="white"/>
</svg>
