<svg width="72" height="72" viewBox="0 0 72 72" fill="none" xmlns="http://www.w3.org/2000/svg">
<g clip-path="url(#clip0_18_50)">
<path d="M62.7097 48.7742H61.1361C63.5086 46.8569 65.0323 43.927 65.0323 40.6452V36C65.0323 31.5186 61.3846 27.871 56.9032 27.871H52.2581C51.8632 27.871 51.4777 27.9093 51.0968 27.9639V6.96774H53.4194V0H0V6.96774H2.32258V40.6452H0V47.6129H27.1533L32.9597 59.2258H44.129V72H72V58.0645C72 52.9421 67.8321 48.7742 62.7097 48.7742ZM61.3428 53.9025L56.6292 55.9231L59.8471 51.0968H60.6414L61.3428 53.9025ZM52.1048 51.0968H57.0565L54.5806 54.8094L52.1048 51.0968ZM52.5298 55.9231L47.8161 53.9025L48.5187 51.0968H49.313L52.5298 55.9231ZM62.7108 40.6452C62.7097 45.1266 59.0621 48.7742 54.5806 48.7742C50.0992 48.7742 46.4516 45.1266 46.4516 40.6452H51.8841C53.9338 40.6452 55.8604 39.8462 57.3085 38.3981L57.9077 37.7988C59.1132 39.2899 60.8272 40.2573 62.7108 40.5453V40.6452ZM6.96774 27.871V38.3226H22.5255C22.5441 38.3632 22.5511 38.4074 22.5708 38.4468L23.6694 40.6452H4.64516V6.96774H48.7742V28.6665C46.0324 29.9741 44.129 32.7658 44.129 36V40.6452H34.6843L31.0819 33.8911C30.247 32.3268 28.627 31.3548 26.8548 31.3548C25.3974 31.3548 24.1049 32.0237 23.2258 33.055V27.871H6.96774ZM20.9032 30.1935V36H9.29032V30.1935H20.9032ZM52.2581 30.1935H56.9032C60.1049 30.1935 62.7097 32.7983 62.7097 36V38.1879C61.3788 37.8929 60.1955 37.1021 59.4209 35.9408L58.2445 34.1768L55.6653 36.756C54.655 37.7663 53.3125 38.3226 51.8841 38.3226H46.4516V36C46.4516 32.7983 49.0564 30.1935 52.2581 30.1935ZM2.32258 2.32258H51.0968V4.64516H2.32258V2.32258ZM2.32258 45.2903V42.9677H24.8307L25.992 45.2903H2.32258ZM37.1613 56.9032H34.3951L24.6484 37.4098C24.4777 37.0672 24.3871 36.6852 24.3871 36.3054V36.1452C24.3871 34.7841 25.4938 33.6774 26.8548 33.6774C27.7676 33.6774 28.6026 34.1791 29.0323 34.9839L37.1613 50.2246V56.9032ZM35.9222 42.9677H44.3984C44.5843 43.783 44.8676 44.5599 45.2323 45.2903H37.1613L35.9222 42.9677ZM38.4004 47.6129H46.8128C47.1879 48.0298 47.5897 48.4212 48.0263 48.7742H39.0194L38.4004 47.6129ZM69.6774 69.6774H65.0323V65.0323H69.6774V69.6774ZM69.6774 62.7097H65.0323V58.0645H62.7097V69.6774H46.4516V56.9032H39.4839V51.0968H46.1265L45.0859 55.2588L54.5806 59.328L64.0765 55.2588L63.0395 51.113C66.7277 51.2872 69.6774 54.3333 69.6774 58.0645V62.7097Z" fill="white"/>
<path d="M23.2258 18.5806V16.2581H20.7859C20.635 15.5183 20.34 14.8308 19.9359 14.2223L21.6662 12.492L20.0241 10.8499L18.2938 12.5803C17.6853 12.1761 16.9978 11.8812 16.2581 11.7302V9.29032H13.9355V11.7302C13.1957 11.8812 12.5083 12.1761 11.8997 12.5803L10.1694 10.8499L8.52736 12.492L10.2577 14.2223C9.85355 14.8308 9.55858 15.5183 9.40761 16.2581H6.96774V18.5806H9.40761C9.55858 19.3204 9.85355 20.0079 10.2577 20.6164L8.52736 22.3467L10.1694 23.9888L11.8997 22.2585C12.5083 22.6626 13.1957 22.9575 13.9355 23.1085V25.5484H16.2581V23.1085C16.9978 22.9575 17.6853 22.6626 18.2938 22.2585L20.0241 23.9888L21.6662 22.3467L19.9359 20.6164C20.34 20.0079 20.635 19.3204 20.7859 18.5806H23.2258ZM15.0968 20.9032C13.176 20.9032 11.6129 19.3401 11.6129 17.4194C11.6129 15.4986 13.176 13.9355 15.0968 13.9355C17.0175 13.9355 18.5806 15.4986 18.5806 17.4194C18.5806 19.3401 17.0175 20.9032 15.0968 20.9032Z" fill="white"/>
<path d="M35.46 11.6129H39.4839V9.29032H34.2174L29.5723 16.2581H25.5484V18.5806H30.8148L35.46 11.6129Z" fill="white"/>
<path d="M46.4516 9.29032H41.8064V11.6129H46.4516V9.29032Z" fill="white"/>
<path d="M32.5161 20.9032H25.5484V27.871H32.5161V20.9032ZM30.1935 25.5484H27.871V23.2258H30.1935V25.5484Z" fill="white"/>
<path d="M39.4839 23.2258H34.8387V25.5484H39.4839V23.2258Z" fill="white"/>
<path d="M46.4516 23.2258H41.8064V25.5484H46.4516V23.2258Z" fill="white"/>
</g>
<defs>
<clipPath id="clip0_18_50">
<rect width="72" height="72" fill="white"/>
</clipPath>
</defs>
</svg>
